<svg width="86" height="12" viewBox="0 0 86 12" fill="none" xmlns="http://www.w3.org/2000/svg">
<path d="M8.47656 7.8418C8.35352 8.89453 7.96387 9.70801 7.30762 10.2822C6.65592 10.8519 5.78776 11.1367 4.70312 11.1367C3.52734 11.1367 2.58398 10.7152 1.87305 9.87207C1.16667 9.02897 0.813477 7.90104 0.813477 6.48828V5.53125C0.813477 4.60612 0.977539 3.79264 1.30566 3.09082C1.63835 2.389 2.10775 1.85124 2.71387 1.47754C3.31999 1.09928 4.02181 0.910156 4.81934 0.910156C5.87663 0.910156 6.72428 1.20638 7.3623 1.79883C8.00033 2.38672 8.37174 3.20247 8.47656 4.24609H7.15723C7.04329 3.45312 6.79492 2.87891 6.41211 2.52344C6.03385 2.16797 5.50293 1.99023 4.81934 1.99023C3.98079 1.99023 3.32227 2.30013 2.84375 2.91992C2.36979 3.53971 2.13281 4.42155 2.13281 5.56543V6.5293C2.13281 7.60938 2.3584 8.46842 2.80957 9.10645C3.26074 9.74447 3.89193 10.0635 4.70312 10.0635C5.43229 10.0635 5.99056 9.89941 6.37793 9.57129C6.76986 9.23861 7.02962 8.66211 7.15723 7.8418H8.47656ZM9.74121 7.2334C9.74121 6.50879 9.88249 5.8571 10.165 5.27832C10.4521 4.69954 10.8486 4.25293 11.3545 3.93848C11.8649 3.62402 12.446 3.4668 13.0977 3.4668C14.1048 3.4668 14.9183 3.81543 15.5381 4.5127C16.1624 5.20996 16.4746 6.13737 16.4746 7.29492V7.38379C16.4746 8.10384 16.3356 8.75098 16.0576 9.3252C15.7842 9.89486 15.39 10.3392 14.875 10.6582C14.3646 10.9772 13.7767 11.1367 13.1113 11.1367C12.1087 11.1367 11.2952 10.7881 10.6709 10.0908C10.0511 9.39355 9.74121 8.4707 9.74121 7.32227V7.2334ZM11.0127 7.38379C11.0127 8.2041 11.2018 8.86263 11.5801 9.35938C11.9629 9.85612 12.4733 10.1045 13.1113 10.1045C13.7539 10.1045 14.2643 9.85384 14.6426 9.35254C15.0208 8.84668 15.21 8.1403 15.21 7.2334C15.21 6.4222 15.0163 5.76595 14.6289 5.26465C14.2461 4.75879 13.7357 4.50586 13.0977 4.50586C12.4733 4.50586 11.9697 4.75423 11.5869 5.25098C11.2041 5.74772 11.0127 6.45866 11.0127 7.38379ZM19.2568 3.60352L19.2979 4.5332C19.863 3.82227 20.6012 3.4668 21.5127 3.4668C23.0758 3.4668 23.8643 4.34863 23.8779 6.1123V11H22.6133V6.10547C22.6087 5.57227 22.4857 5.17806 22.2441 4.92285C22.0072 4.66764 21.6357 4.54004 21.1299 4.54004C20.7197 4.54004 20.3597 4.64941 20.0498 4.86816C19.7399 5.08691 19.4984 5.37402 19.3252 5.72949V11H18.0605V3.60352H19.2568ZM27.501 1.8125V3.60352H28.8818V4.58105H27.501V9.16797C27.501 9.46419 27.5625 9.6875 27.6855 9.83789C27.8086 9.98372 28.0182 10.0566 28.3145 10.0566C28.4603 10.0566 28.6608 10.0293 28.916 9.97461V11C28.5833 11.0911 28.2598 11.1367 27.9453 11.1367C27.3802 11.1367 26.9541 10.9658 26.667 10.624C26.3799 10.2822 26.2363 9.79688 26.2363 9.16797V4.58105H24.8896V3.60352H26.2363V1.8125H27.501ZM34.9316 11C34.8587 10.8542 34.7995 10.5944 34.7539 10.2207C34.166 10.8314 33.4642 11.1367 32.6484 11.1367C31.9193 11.1367 31.32 10.9316 30.8506 10.5215C30.3857 10.1068 30.1533 9.58268 30.1533 8.94922C30.1533 8.17904 30.445 7.58203 31.0283 7.1582C31.6162 6.72982 32.4411 6.51562 33.5029 6.51562H34.7334V5.93457C34.7334 5.49251 34.6012 5.1416 34.3369 4.88184C34.0726 4.61751 33.6829 4.48535 33.168 4.48535C32.7168 4.48535 32.3385 4.59928 32.0332 4.82715C31.7279 5.05501 31.5752 5.33073 31.5752 5.6543H30.3037C30.3037 5.28516 30.4336 4.92969 30.6934 4.58789C30.9577 4.24154 31.3132 3.9681 31.7598 3.76758C32.2109 3.56706 32.7054 3.4668 33.2432 3.4668C34.0954 3.4668 34.763 3.68099 35.2461 4.10938C35.7292 4.5332 35.9798 5.11882 35.998 5.86621V9.27051C35.998 9.94954 36.0846 10.4896 36.2578 10.8906V11H34.9316ZM32.833 10.0361C33.2295 10.0361 33.6055 9.93359 33.9609 9.72852C34.3164 9.52344 34.5739 9.25684 34.7334 8.92871V7.41113H33.7422C32.1927 7.41113 31.418 7.86458 31.418 8.77148C31.418 9.16797 31.5501 9.47786 31.8145 9.70117C32.0788 9.92448 32.4183 10.0361 32.833 10.0361ZM40.9473 10.1045C41.3984 10.1045 41.7926 9.96777 42.1299 9.69434C42.4671 9.4209 42.654 9.0791 42.6904 8.66895H43.8867C43.8639 9.09277 43.7181 9.49609 43.4492 9.87891C43.1803 10.2617 42.8203 10.5671 42.3691 10.7949C41.9225 11.0228 41.4486 11.1367 40.9473 11.1367C39.9401 11.1367 39.138 10.8018 38.541 10.1318C37.9486 9.45736 37.6523 8.53678 37.6523 7.37012V7.1582C37.6523 6.43815 37.7845 5.79785 38.0488 5.2373C38.3132 4.67676 38.6914 4.24154 39.1836 3.93164C39.6803 3.62174 40.266 3.4668 40.9404 3.4668C41.7699 3.4668 42.458 3.71517 43.0049 4.21191C43.5563 4.70866 43.8503 5.35352 43.8867 6.14648H42.6904C42.654 5.66797 42.4717 5.27604 42.1436 4.9707C41.82 4.66081 41.4189 4.50586 40.9404 4.50586C40.2979 4.50586 39.7988 4.73828 39.4434 5.20312C39.0924 5.66341 38.917 6.33105 38.917 7.20605V7.44531C38.917 8.29753 39.0924 8.95378 39.4434 9.41406C39.7943 9.87435 40.2956 10.1045 40.9473 10.1045ZM47.0244 1.8125V3.60352H48.4053V4.58105H47.0244V9.16797C47.0244 9.46419 47.0859 9.6875 47.209 9.83789C47.332 9.98372 47.5417 10.0566 47.8379 10.0566C47.9837 10.0566 48.1842 10.0293 48.4395 9.97461V11C48.1068 11.0911 47.7832 11.1367 47.4688 11.1367C46.9036 11.1367 46.4775 10.9658 46.1904 10.624C45.9033 10.2822 45.7598 9.79688 45.7598 9.16797V4.58105H44.4131V3.60352H45.7598V1.8125H47.0244ZM56.4922 6.56348C55.3665 6.23991 54.5462 5.84342 54.0312 5.37402C53.5208 4.90007 53.2656 4.31673 53.2656 3.62402C53.2656 2.84017 53.5778 2.19303 54.2021 1.68262C54.8311 1.16764 55.6468 0.910156 56.6494 0.910156C57.333 0.910156 57.9414 1.04232 58.4746 1.30664C59.0124 1.57096 59.4271 1.93555 59.7188 2.40039C60.015 2.86523 60.1631 3.37337 60.1631 3.9248H58.8438C58.8438 3.32324 58.6523 2.85156 58.2695 2.50977C57.8867 2.16341 57.3467 1.99023 56.6494 1.99023C56.0023 1.99023 55.4964 2.13379 55.1318 2.4209C54.7718 2.70345 54.5918 3.09766 54.5918 3.60352C54.5918 4.00911 54.7627 4.35319 55.1045 4.63574C55.4508 4.91374 56.0365 5.16895 56.8613 5.40137C57.6908 5.63379 58.3379 5.89128 58.8027 6.17383C59.2721 6.45182 59.6185 6.77767 59.8418 7.15137C60.0697 7.52507 60.1836 7.96484 60.1836 8.4707C60.1836 9.27734 59.8691 9.92448 59.2402 10.4121C58.6113 10.8952 57.7705 11.1367 56.7178 11.1367C56.0342 11.1367 55.3962 11.0068 54.8037 10.7471C54.2113 10.4827 53.7533 10.1227 53.4297 9.66699C53.1107 9.21126 52.9512 8.69401 52.9512 8.11523H54.2705C54.2705 8.7168 54.4915 9.19303 54.9336 9.54395C55.3802 9.8903 55.9749 10.0635 56.7178 10.0635C57.4105 10.0635 57.9414 9.9222 58.3105 9.63965C58.6797 9.3571 58.8643 8.97201 58.8643 8.48438C58.8643 7.99674 58.6934 7.62077 58.3516 7.35645C58.0098 7.08757 57.39 6.82324 56.4922 6.56348ZM66.2402 11C66.1673 10.8542 66.1081 10.5944 66.0625 10.2207C65.4746 10.8314 64.7728 11.1367 63.957 11.1367C63.2279 11.1367 62.6286 10.9316 62.1592 10.5215C61.6943 10.1068 61.4619 9.58268 61.4619 8.94922C61.4619 8.17904 61.7536 7.58203 62.3369 7.1582C62.9248 6.72982 63.7497 6.51562 64.8115 6.51562H66.042V5.93457C66.042 5.49251 65.9098 5.1416 65.6455 4.88184C65.3812 4.61751 64.9915 4.48535 64.4766 4.48535C64.0254 4.48535 63.6471 4.59928 63.3418 4.82715C63.0365 5.05501 62.8838 5.33073 62.8838 5.6543H61.6123C61.6123 5.28516 61.7422 4.92969 62.002 4.58789C62.2663 4.24154 62.6217 3.9681 63.0684 3.76758C63.5195 3.56706 64.014 3.4668 64.5518 3.4668C65.404 3.4668 66.0716 3.68099 66.5547 4.10938C67.0378 4.5332 67.2884 5.11882 67.3066 5.86621V9.27051C67.3066 9.94954 67.3932 10.4896 67.5664 10.8906V11H66.2402ZM64.1416 10.0361C64.5381 10.0361 64.9141 9.93359 65.2695 9.72852C65.625 9.52344 65.8825 9.25684 66.042 8.92871V7.41113H65.0508C63.5013 7.41113 62.7266 7.86458 62.7266 8.77148C62.7266 9.16797 62.8587 9.47786 63.123 9.70117C63.3874 9.92448 63.7269 10.0361 64.1416 10.0361ZM70.6631 11H69.3984V0.5H70.6631V11ZM75.7627 11.1367C74.7601 11.1367 73.9443 10.8086 73.3154 10.1523C72.6865 9.49154 72.3721 8.6097 72.3721 7.50684V7.27441C72.3721 6.54069 72.5111 5.88672 72.7891 5.3125C73.0716 4.73372 73.4635 4.28255 73.9648 3.95898C74.4707 3.63086 75.0176 3.4668 75.6055 3.4668C76.5671 3.4668 77.3145 3.78353 77.8477 4.41699C78.3809 5.05046 78.6475 5.95736 78.6475 7.1377V7.66406H73.6367C73.6549 8.39323 73.8669 8.9834 74.2725 9.43457C74.6826 9.88118 75.2021 10.1045 75.8311 10.1045C76.2777 10.1045 76.6559 10.0133 76.9658 9.83105C77.2757 9.64876 77.5469 9.40723 77.7793 9.10645L78.5518 9.70801C77.932 10.6605 77.0023 11.1367 75.7627 11.1367ZM75.6055 4.50586C75.0951 4.50586 74.6667 4.69271 74.3203 5.06641C73.974 5.43555 73.7598 5.95508 73.6777 6.625H77.3828V6.5293C77.3464 5.88672 77.1732 5.38997 76.8633 5.03906C76.5534 4.68359 76.1341 4.50586 75.6055 4.50586ZM84.4238 9.03809C84.4238 8.69629 84.2939 8.43197 84.0342 8.24512C83.779 8.05371 83.3301 7.88965 82.6875 7.75293C82.0495 7.61621 81.5413 7.45215 81.1631 7.26074C80.7894 7.06934 80.5114 6.84147 80.3291 6.57715C80.1514 6.31283 80.0625 5.99837 80.0625 5.63379C80.0625 5.02767 80.3177 4.51497 80.8281 4.0957C81.3431 3.67643 81.9993 3.4668 82.7969 3.4668C83.6354 3.4668 84.3145 3.68327 84.834 4.11621C85.3581 4.54915 85.6201 5.10286 85.6201 5.77734H84.3486C84.3486 5.43099 84.2005 5.13249 83.9043 4.88184C83.6126 4.63118 83.2435 4.50586 82.7969 4.50586C82.3366 4.50586 81.9766 4.60612 81.7168 4.80664C81.457 5.00716 81.3271 5.26921 81.3271 5.59277C81.3271 5.89811 81.4479 6.12826 81.6895 6.2832C81.931 6.43815 82.3662 6.58626 82.9951 6.72754C83.6286 6.86882 84.1413 7.03743 84.5332 7.2334C84.9251 7.42936 85.2145 7.66634 85.4014 7.94434C85.5928 8.21777 85.6885 8.55273 85.6885 8.94922C85.6885 9.61003 85.4242 10.141 84.8955 10.542C84.3669 10.9385 83.681 11.1367 82.8379 11.1367C82.2454 11.1367 81.7214 11.0319 81.2656 10.8223C80.8099 10.6126 80.4521 10.321 80.1924 9.94727C79.9372 9.56901 79.8096 9.16113 79.8096 8.72363H81.0742C81.097 9.14746 81.2656 9.4847 81.5801 9.73535C81.8991 9.98145 82.3184 10.1045 82.8379 10.1045C83.3164 10.1045 83.6992 10.0088 83.9863 9.81738C84.278 9.62142 84.4238 9.36165 84.4238 9.03809Z" fill="#646F79"/>
</svg>
