<svg width="62" height="14" viewBox="0 0 62 14" fill="none" xmlns="http://www.w3.org/2000/svg">
<path d="M5.78125 6.39941H1.46777V9.92676H6.47852V11H0.155273V1.04688H6.41016V2.12695H1.46777V5.32617H5.78125V6.39941ZM9.11035 3.60352L9.15137 4.5332C9.71647 3.82227 10.4548 3.4668 11.3662 3.4668C12.9294 3.4668 13.7178 4.34863 13.7314 6.1123V11H12.4668V6.10547C12.4622 5.57227 12.3392 5.17806 12.0977 4.92285C11.8607 4.66764 11.4893 4.54004 10.9834 4.54004C10.5732 4.54004 10.2132 4.64941 9.90332 4.86816C9.59342 5.08691 9.35189 5.37402 9.17871 5.72949V11H7.91406V3.60352H9.11035ZM17.3545 1.8125V3.60352H18.7354V4.58105H17.3545V9.16797C17.3545 9.46419 17.416 9.6875 17.5391 9.83789C17.6621 9.98372 17.8717 10.0566 18.168 10.0566C18.3138 10.0566 18.5143 10.0293 18.7695 9.97461V11C18.4368 11.0911 18.1133 11.1367 17.7988 11.1367C17.2337 11.1367 16.8076 10.9658 16.5205 10.624C16.2334 10.2822 16.0898 9.79688 16.0898 9.16797V4.58105H14.7432V3.60352H16.0898V1.8125H17.3545ZM23.2881 11.1367C22.2855 11.1367 21.4697 10.8086 20.8408 10.1523C20.2119 9.49154 19.8975 8.6097 19.8975 7.50684V7.27441C19.8975 6.54069 20.0365 5.88672 20.3145 5.3125C20.597 4.73372 20.9889 4.28255 21.4902 3.95898C21.9961 3.63086 22.543 3.4668 23.1309 3.4668C24.0924 3.4668 24.8398 3.78353 25.373 4.41699C25.9062 5.05046 26.1729 5.95736 26.1729 7.1377V7.66406H21.1621C21.1803 8.39323 21.3923 8.9834 21.7979 9.43457C22.208 9.88118 22.7275 10.1045 23.3564 10.1045C23.8031 10.1045 24.1813 10.0133 24.4912 9.83105C24.8011 9.64876 25.0723 9.40723 25.3047 9.10645L26.0771 9.70801C25.4574 10.6605 24.5277 11.1367 23.2881 11.1367ZM23.1309 4.50586C22.6204 4.50586 22.1921 4.69271 21.8457 5.06641C21.4993 5.43555 21.2852 5.95508 21.2031 6.625H24.9082V6.5293C24.8717 5.88672 24.6986 5.38997 24.3887 5.03906C24.0788 4.68359 23.6595 4.50586 23.1309 4.50586ZM31.2178 4.73828C31.0264 4.70638 30.819 4.69043 30.5957 4.69043C29.7663 4.69043 29.2035 5.04362 28.9072 5.75V11H27.6426V3.60352H28.873L28.8936 4.45801C29.3083 3.7972 29.8962 3.4668 30.6572 3.4668C30.9033 3.4668 31.0902 3.4987 31.2178 3.5625V4.73828ZM38.6348 7.38379C38.6348 8.50944 38.3773 9.41634 37.8623 10.1045C37.3473 10.7926 36.6501 11.1367 35.7705 11.1367C34.8727 11.1367 34.1663 10.8519 33.6514 10.2822V13.8438H32.3867V3.60352H33.542L33.6035 4.42383C34.1185 3.78581 34.834 3.4668 35.75 3.4668C36.6387 3.4668 37.3405 3.80176 37.8555 4.47168C38.375 5.1416 38.6348 6.07357 38.6348 7.26758V7.38379ZM37.3701 7.24023C37.3701 6.40625 37.1924 5.74772 36.8369 5.26465C36.4814 4.78158 35.9938 4.54004 35.374 4.54004C34.6084 4.54004 34.0342 4.87956 33.6514 5.55859V9.09277C34.0296 9.76725 34.6084 10.1045 35.3877 10.1045C35.9938 10.1045 36.4746 9.86523 36.8301 9.38672C37.1901 8.90365 37.3701 8.18815 37.3701 7.24023ZM43.8232 4.73828C43.6318 4.70638 43.4245 4.69043 43.2012 4.69043C42.3717 4.69043 41.8089 5.04362 41.5127 5.75V11H40.248V3.60352H41.4785L41.499 4.45801C41.9137 3.7972 42.5016 3.4668 43.2627 3.4668C43.5088 3.4668 43.6956 3.4987 43.8232 3.5625V4.73828ZM46.3662 11H45.1016V3.60352H46.3662V11ZM44.999 1.6416C44.999 1.43652 45.0605 1.26335 45.1836 1.12207C45.3112 0.980794 45.498 0.910156 45.7441 0.910156C45.9902 0.910156 46.1771 0.980794 46.3047 1.12207C46.4323 1.26335 46.4961 1.43652 46.4961 1.6416C46.4961 1.84668 46.4323 2.01758 46.3047 2.1543C46.1771 2.29102 45.9902 2.35938 45.7441 2.35938C45.498 2.35938 45.3112 2.29102 45.1836 2.1543C45.0605 2.01758 44.999 1.84668 44.999 1.6416ZM52.7031 9.03809C52.7031 8.69629 52.5732 8.43197 52.3135 8.24512C52.0583 8.05371 51.6094 7.88965 50.9668 7.75293C50.3288 7.61621 49.8206 7.45215 49.4424 7.26074C49.0687 7.06934 48.7907 6.84147 48.6084 6.57715C48.4307 6.31283 48.3418 5.99837 48.3418 5.63379C48.3418 5.02767 48.597 4.51497 49.1074 4.0957C49.6224 3.67643 50.2786 3.4668 51.0762 3.4668C51.9147 3.4668 52.5938 3.68327 53.1133 4.11621C53.6374 4.54915 53.8994 5.10286 53.8994 5.77734H52.6279C52.6279 5.43099 52.4798 5.13249 52.1836 4.88184C51.8919 4.63118 51.5228 4.50586 51.0762 4.50586C50.6159 4.50586 50.2559 4.60612 49.9961 4.80664C49.7363 5.00716 49.6064 5.26921 49.6064 5.59277C49.6064 5.89811 49.7272 6.12826 49.9688 6.2832C50.2103 6.43815 50.6455 6.58626 51.2744 6.72754C51.9079 6.86882 52.4206 7.03743 52.8125 7.2334C53.2044 7.42936 53.4938 7.66634 53.6807 7.94434C53.8721 8.21777 53.9678 8.55273 53.9678 8.94922C53.9678 9.61003 53.7035 10.141 53.1748 10.542C52.6462 10.9385 51.9603 11.1367 51.1172 11.1367C50.5247 11.1367 50.0007 11.0319 49.5449 10.8223C49.0892 10.6126 48.7314 10.321 48.4717 9.94727C48.2165 9.56901 48.0889 9.16113 48.0889 8.72363H49.3535C49.3763 9.14746 49.5449 9.4847 49.8594 9.73535C50.1784 9.98145 50.5977 10.1045 51.1172 10.1045C51.5957 10.1045 51.9785 10.0088 52.2656 9.81738C52.5573 9.62142 52.7031 9.36165 52.7031 9.03809ZM58.6846 11.1367C57.682 11.1367 56.8662 10.8086 56.2373 10.1523C55.6084 9.49154 55.2939 8.6097 55.2939 7.50684V7.27441C55.2939 6.54069 55.4329 5.88672 55.7109 5.3125C55.9935 4.73372 56.3854 4.28255 56.8867 3.95898C57.3926 3.63086 57.9395 3.4668 58.5273 3.4668C59.4889 3.4668 60.2363 3.78353 60.7695 4.41699C61.3027 5.05046 61.5693 5.95736 61.5693 7.1377V7.66406H56.5586C56.5768 8.39323 56.7887 8.9834 57.1943 9.43457C57.6045 9.88118 58.124 10.1045 58.7529 10.1045C59.1995 10.1045 59.5778 10.0133 59.8877 9.83105C60.1976 9.64876 60.4688 9.40723 60.7012 9.10645L61.4736 9.70801C60.8538 10.6605 59.9242 11.1367 58.6846 11.1367ZM58.5273 4.50586C58.0169 4.50586 57.5885 4.69271 57.2422 5.06641C56.8958 5.43555 56.6816 5.95508 56.5996 6.625H60.3047V6.5293C60.2682 5.88672 60.0951 5.38997 59.7852 5.03906C59.4753 4.68359 59.056 4.50586 58.5273 4.50586Z" fill="#646F79"/>
</svg>
