<svg width="32" height="32" viewBox="0 0 32 32" fill="none" xmlns="http://www.w3.org/2000/svg">
<path d="M16 0C7.1632 0 0 7.1648 0 16C0 24.8368 7.1632 32 16 32C24.8368 32 32 24.8368 32 16C32 7.1648 24.8368 0 16 0Z" fill="#151B26"/>
<path d="M19.2686 13.2912L19.0846 15.6848H16.6302V24H13.5294V15.6848H11.875V13.2912H13.5294V11.6832C13.5294 10.9744 13.547 9.8816 14.0622 9.2048C14.6046 8.4864 15.3502 8 16.6302 8C18.7166 8 19.595 8.2976 19.595 8.2976L19.1822 10.7488C19.1822 10.7488 18.4926 10.5488 17.8494 10.5488C17.2062 10.5488 16.6302 10.7792 16.6302 11.4224V13.2912H19.2686Z" fill="white"/>
</svg>
