<svg width="32" height="32" viewBox="0 0 32 32" fill="none" xmlns="http://www.w3.org/2000/svg">
<path d="M16 0C7.1632 0 0 7.1648 0 16C0 24.8368 7.1632 32 16 32C24.8368 32 32 24.8368 32 16C32 7.1648 24.8368 0 16 0Z" fill="#151B26"/>
<path d="M11.6466 22.6912H8.5282V12.7104H11.6466V22.6912ZM10.0082 11.4624H9.9858C8.8578 11.4624 8.125 10.6992 8.125 9.7328C8.125 8.7472 8.8786 8 10.0306 8C11.181 8 11.8882 8.7456 11.9106 9.7296C11.9106 10.6976 11.1794 11.4624 10.0082 11.4624ZM24.125 22.6912H20.589V17.5264C20.589 16.1744 20.037 15.2528 18.8194 15.2528C17.8882 15.2528 17.3714 15.8752 17.1314 16.4752C17.0418 16.6896 17.0546 16.9904 17.0546 17.2912V22.6912H13.5506C13.5506 22.6912 13.5954 13.5424 13.5506 12.7104H17.0546V14.2768C17.261 13.592 18.381 12.6144 20.1682 12.6144C22.3842 12.6144 24.125 14.0496 24.125 17.1408V22.6912Z" fill="white"/>
</svg>
