<svg width="32" height="32" viewBox="0 0 32 32" fill="none" xmlns="http://www.w3.org/2000/svg">
<path d="M0 16C0 7.1632 7.1632 0 16 0C24.8384 0 32 7.1632 32 16C32 24.8352 24.8384 32 16 32C7.1632 32 0 24.8368 0 16Z" fill="#151B26"/>
<path d="M16 9.442C18.136 9.442 18.3893 9.45 19.2333 9.48867C21.4013 9.58733 22.414 10.616 22.5127 12.768C22.5513 13.6113 22.5587 13.8647 22.5587 16.0007C22.5587 18.1373 22.5507 18.39 22.5127 19.2333C22.4133 21.3833 21.4033 22.414 19.2333 22.5127C18.3893 22.5513 18.1373 22.5593 16 22.5593C13.864 22.5593 13.6107 22.5513 12.7673 22.5127C10.594 22.4133 9.58667 21.38 9.488 19.2327C9.44933 18.3893 9.44133 18.1367 9.44133 16C9.44133 13.864 9.45 13.6113 9.488 12.7673C9.58733 10.616 10.5973 9.58667 12.7673 9.488C13.6113 9.45 13.864 9.442 16 9.442ZM16 8C13.8273 8 13.5553 8.00933 12.702 8.048C9.79667 8.18133 8.182 9.79333 8.04867 12.7013C8.00933 13.5553 8 13.8273 8 16C8 18.1727 8.00933 18.4453 8.048 19.2987C8.18133 22.204 9.79333 23.8187 12.7013 23.952C13.5553 23.9907 13.8273 24 16 24C18.1727 24 18.4453 23.9907 19.2987 23.952C22.2013 23.8187 23.82 22.2067 23.9513 19.2987C23.9907 18.4453 24 18.1727 24 16C24 13.8273 23.9907 13.5553 23.952 12.702C23.8213 9.79933 22.2073 8.182 19.2993 8.04867C18.4453 8.00933 18.1727 8 16 8ZM16 11.892C13.7313 11.892 11.892 13.7313 11.892 16C11.892 18.2687 13.7313 20.1087 16 20.1087C18.2687 20.1087 20.108 18.2693 20.108 16C20.108 13.7313 18.2687 11.892 16 11.892ZM16 18.6667C14.5273 18.6667 13.3333 17.4733 13.3333 16C13.3333 14.5273 14.5273 13.3333 16 13.3333C17.4727 13.3333 18.6667 14.5273 18.6667 16C18.6667 17.4733 17.4727 18.6667 16 18.6667ZM20.2707 10.77C19.74 10.77 19.31 11.2 19.31 11.73C19.31 12.26 19.74 12.69 20.2707 12.69C20.8007 12.69 21.23 12.26 21.23 11.73C21.23 11.2 20.8007 10.77 20.2707 10.77Z" fill="white"/>
</svg>
