<svg width="28" height="28" viewBox="0 0 28 28" fill="none" xmlns="http://www.w3.org/2000/svg">
<g clip-path="url(#clip0)">
<path d="M14 0.700001C6.68495 0.700001 0.699951 6.685 0.699951 14C0.699951 21.315 6.68495 27.3 14 27.3C21.315 27.3 27.3 21.315 27.3 14C27.3 6.685 21.315 0.700001 14 0.700001ZM24.4737 9.0125H19.4031C18.9875 6.43563 18.2393 4.27438 17.2418 2.86125C20.4837 3.77563 23.0606 6.02 24.4737 9.0125ZM18.1562 14C18.1562 15.1638 18.0731 16.2444 17.99 17.325H10.01C9.92683 16.2444 9.8437 15.1638 9.8437 14C9.8437 12.8363 9.92683 11.7556 10.01 10.675H17.99C18.0731 11.7556 18.1562 12.8363 18.1562 14ZM14 25.6375C12.5868 25.6375 11.0075 23.0606 10.2593 18.9875H17.7406C16.9925 23.0606 15.4131 25.6375 14 25.6375ZM10.2593 9.0125C11.0075 4.93938 12.5868 2.3625 14 2.3625C15.4131 2.3625 16.9925 4.93938 17.7406 9.0125H10.2593ZM10.7581 2.86125C9.76058 4.27438 9.01245 6.43563 8.59683 9.0125H3.5262C4.93933 6.02 7.5162 3.77563 10.7581 2.86125ZM2.8612 10.675H8.34745C8.26433 11.7556 8.1812 12.8363 8.1812 14C8.1812 15.1638 8.26433 16.2444 8.34745 17.325H2.8612C2.5287 16.2444 2.36245 15.1638 2.36245 14C2.36245 12.8363 2.5287 11.7556 2.8612 10.675ZM3.5262 18.9875H8.59683C9.01245 21.5644 9.76058 23.7256 10.7581 25.1388C7.5162 24.2244 4.93933 21.98 3.5262 18.9875ZM17.2418 25.1388C18.2393 23.6425 18.9875 21.5644 19.4031 18.9875H24.4737C23.0606 21.98 20.4837 24.2244 17.2418 25.1388ZM25.1387 17.325H19.6525C19.7356 16.2444 19.8187 15.1638 19.8187 14C19.8187 12.8363 19.7356 11.7556 19.6525 10.675H25.1387C25.4712 11.7556 25.6375 12.8363 25.6375 14C25.6375 15.1638 25.4712 16.2444 25.1387 17.325Z" fill="#6F7782"/>
</g>
<defs>
<clipPath id="clip0">
<rect width="28" height="28" fill="white"/>
</clipPath>
</defs>
</svg>
