<svg width="24" height="24" viewBox="0 0 24 24" fill="none" xmlns="http://www.w3.org/2000/svg">
<path d="M23.8462 12.0002C23.8462 5.38484 18.5385 0.0771484 11.9231 0.0771484C5.30769 0.0771484 0 5.38484 0 12.0002C0 15.6156 1.61538 18.7695 4.07692 21.0002L4.23077 21.3079C4.23077 21.3079 4.30769 21.3079 4.30769 21.231C6.38462 22.9233 9 24.0002 11.9231 24.0002C18 24.0002 23 19.4618 23.7692 13.5387H23.8462V12.0002ZM22.3846 12.0002H18.6923C18.6923 9.76946 18.3846 7.69253 17.7692 5.9233C17.8462 5.84638 17.9231 5.84638 18 5.76946C18.1538 5.69253 18.9231 5.23099 19.0769 5.07715C19.2308 5.00023 19.3846 4.9233 19.5385 4.76946C21.3077 6.69253 22.3846 9.231 22.3846 12.0002ZM17.6923 19.8464C17.9231 20.0002 18.1538 20.1541 18.3846 20.231C17.6154 20.7695 16.8462 21.3079 15.9231 21.6156C16.3846 21.0002 16.8462 20.3079 17.1538 19.5387C17.3077 19.6156 17.5385 19.7695 17.6923 19.8464ZM6.84615 19.7695C7.15385 20.4618 7.53846 21.0771 8 21.6156C7.23077 21.3079 6.46154 20.8464 5.84615 20.3848C6.15385 20.231 6.61539 19.9233 6.76923 19.8464C6.76923 19.8464 6.76923 19.7695 6.84615 19.7695ZM6.69231 12.0002C6.69231 10.0771 7 8.23099 7.46154 6.69253C8.61539 7.07715 9.84615 7.30792 11.1538 7.30792V12.0002H6.69231ZM6.23077 4.53869C5.84615 4.30792 5.53846 4.15407 5.30769 3.9233C6.07692 3.23099 7 2.69253 8 2.30792C7.46154 3.00023 7 3.84638 6.61539 4.69253C6.46154 4.69253 6.30769 4.61561 6.23077 4.53869ZM17.1538 4.46176C16.7692 3.61561 16.3846 2.9233 15.8462 2.30792C16.7692 2.69253 17.5385 3.15407 18.3077 3.76946C18.3077 3.76946 18.2308 3.76946 18.2308 3.84638C18.0769 3.9233 17.3846 4.38484 17.1538 4.46176ZM12.6923 1.69253C13.9231 2.07715 15.0769 3.30792 15.8462 5.15407C14.9231 5.53869 14 5.69253 12.6923 5.76946V1.69253ZM11.1538 1.69253V5.84638C10 5.84638 8.92308 5.61561 7.92308 5.30792C8.76923 3.38484 9.92308 2.07715 11.1538 1.69253ZM11.1538 13.4618V17.0002C9.69231 17.0771 8.61539 17.3079 7.53846 17.6925C7.15385 16.4618 6.84615 15.0002 6.69231 13.4618H11.1538ZM11.1538 18.5387V22.3079C10 21.9233 8.92308 20.7695 8.15385 19.1541C9 18.7695 9.92308 18.6156 11.1538 18.5387ZM12.6923 22.3079V18.5387C13.7692 18.5387 14.8462 18.6925 15.7692 19.0002C14.9231 20.7695 13.8462 21.9233 12.6923 22.3079ZM12.6923 17.0002V13.4618H17.0769C17 15.0002 16.6923 16.3848 16.3077 17.6156C15.1538 17.231 14 17.0771 12.6923 17.0002ZM12.6923 12.0002V7.30792C14.2308 7.23099 15.3077 7.00023 16.3846 6.61561C16.8462 8.23099 17.1538 10.0771 17.1538 12.0771H12.6923V12.0002ZM4.23077 5.00023C4.61538 5.23099 5 5.53869 5.53846 5.84638C5.69231 5.9233 5.84615 6.00023 6.07692 6.15407C5.53846 7.9233 5.23077 9.9233 5.23077 12.0002H1.46154C1.46154 9.30792 2.53846 6.84638 4.23077 5.00023ZM1.61538 13.4618H5.30769C5.38462 15.3079 5.76923 16.9233 6.23077 18.3848C6.15385 18.4618 6 18.5387 5.92308 18.5387C5.76923 18.6156 5 19.0771 4.84615 19.231C4.76923 19.3079 4.69231 19.3079 4.53846 19.3848C3 17.8464 1.92308 15.7695 1.61538 13.4618ZM19.4615 19.231C19.1538 19.0002 18.7692 18.7695 18.3846 18.5387C18.1538 18.3848 17.9231 18.3079 17.6923 18.1541C18.1538 16.7695 18.4615 15.1541 18.6154 13.4618H22.3077C21.9231 15.6925 20.9231 17.6925 19.4615 19.231Z" fill="white"/>
</svg>
