<svg width="37" height="13" viewBox="0 0 37 13" fill="none" xmlns="http://www.w3.org/2000/svg">
<path d="M1.47461 8.92676H6.19141V10H0.155273V0.046875H1.47461V8.92676ZM7.15527 6.2334C7.15527 5.50879 7.29655 4.8571 7.5791 4.27832C7.86621 3.69954 8.2627 3.25293 8.76855 2.93848C9.27897 2.62402 9.86003 2.4668 10.5117 2.4668C11.5189 2.4668 12.3324 2.81543 12.9521 3.5127C13.5765 4.20996 13.8887 5.13737 13.8887 6.29492V6.38379C13.8887 7.10384 13.7497 7.75098 13.4717 8.3252C13.1982 8.89486 12.804 9.33919 12.2891 9.6582C11.7786 9.97721 11.1908 10.1367 10.5254 10.1367C9.52279 10.1367 8.70931 9.78809 8.08496 9.09082C7.46517 8.39355 7.15527 7.4707 7.15527 6.32227V6.2334ZM8.42676 6.38379C8.42676 7.2041 8.61589 7.86263 8.99414 8.35938C9.37695 8.85612 9.88737 9.10449 10.5254 9.10449C11.168 9.10449 11.6784 8.85384 12.0566 8.35254C12.4349 7.84668 12.624 7.1403 12.624 6.2334C12.624 5.4222 12.4303 4.76595 12.043 4.26465C11.6602 3.75879 11.1497 3.50586 10.5117 3.50586C9.88737 3.50586 9.38379 3.75423 9.00098 4.25098C8.61816 4.74772 8.42676 5.45866 8.42676 6.38379ZM15.1738 6.24023C15.1738 5.08724 15.4404 4.17122 15.9736 3.49219C16.5068 2.80859 17.2132 2.4668 18.0928 2.4668C18.9951 2.4668 19.6992 2.78581 20.2051 3.42383L20.2666 2.60352H21.4219V9.82227C21.4219 10.7793 21.137 11.5335 20.5674 12.085C20.0023 12.6364 19.2412 12.9121 18.2842 12.9121C17.751 12.9121 17.2292 12.7982 16.7188 12.5703C16.2083 12.3424 15.8187 12.0303 15.5498 11.6338L16.2061 10.875C16.7484 11.5449 17.4115 11.8799 18.1953 11.8799C18.8105 11.8799 19.2891 11.7067 19.6309 11.3604C19.9772 11.014 20.1504 10.5264 20.1504 9.89746V9.26172C19.6445 9.84505 18.9541 10.1367 18.0791 10.1367C17.2132 10.1367 16.5114 9.78809 15.9736 9.09082C15.4404 8.39355 15.1738 7.44336 15.1738 6.24023ZM16.4453 6.38379C16.4453 7.21777 16.6162 7.87402 16.958 8.35254C17.2998 8.8265 17.7783 9.06348 18.3936 9.06348C19.1911 9.06348 19.7767 8.70117 20.1504 7.97656V4.59961C19.763 3.89323 19.182 3.54004 18.4072 3.54004C17.792 3.54004 17.3112 3.7793 16.9648 4.25781C16.6185 4.73633 16.4453 5.44499 16.4453 6.38379ZM28.415 10H27.1025V0.046875H28.415V10ZM31.8193 2.60352L31.8604 3.5332C32.4255 2.82227 33.1637 2.4668 34.0752 2.4668C35.6383 2.4668 36.4268 3.34863 36.4404 5.1123V10H35.1758V5.10547C35.1712 4.57227 35.0482 4.17806 34.8066 3.92285C34.5697 3.66764 34.1982 3.54004 33.6924 3.54004C33.2822 3.54004 32.9222 3.64941 32.6123 3.86816C32.3024 4.08691 32.0609 4.37402 31.8877 4.72949V10H30.623V2.60352H31.8193Z" fill="#646F79"/>
</svg>
