<svg width="42" height="14" viewBox="0 0 42 14" fill="none" xmlns="http://www.w3.org/2000/svg">
<path d="M1.46777 7.10352V11H0.155273V1.04688H3.82617C4.91536 1.04688 5.76758 1.32487 6.38281 1.88086C7.0026 2.43685 7.3125 3.17285 7.3125 4.08887C7.3125 5.05501 7.00944 5.80013 6.40332 6.32422C5.80176 6.84375 4.93815 7.10352 3.8125 7.10352H1.46777ZM1.46777 6.03027H3.82617C4.52799 6.03027 5.06576 5.86621 5.43945 5.53809C5.81315 5.2054 6 4.72689 6 4.10254C6 3.51009 5.81315 3.03613 5.43945 2.68066C5.06576 2.3252 4.55306 2.14062 3.90137 2.12695H1.46777V6.03027ZM12.3643 4.73828C12.1729 4.70638 11.9655 4.69043 11.7422 4.69043C10.9128 4.69043 10.3499 5.04362 10.0537 5.75V11H8.78906V3.60352H10.0195L10.04 4.45801C10.4548 3.7972 11.0426 3.4668 11.8037 3.4668C12.0498 3.4668 12.2367 3.4987 12.3643 3.5625V4.73828ZM14.9072 11H13.6426V3.60352H14.9072V11ZM13.54 1.6416C13.54 1.43652 13.6016 1.26335 13.7246 1.12207C13.8522 0.980794 14.0391 0.910156 14.2852 0.910156C14.5312 0.910156 14.7181 0.980794 14.8457 1.12207C14.9733 1.26335 15.0371 1.43652 15.0371 1.6416C15.0371 1.84668 14.9733 2.01758 14.8457 2.1543C14.7181 2.29102 14.5312 2.35938 14.2852 2.35938C14.0391 2.35938 13.8522 2.29102 13.7246 2.1543C13.6016 2.01758 13.54 1.84668 13.54 1.6416ZM19.9043 10.1045C20.3555 10.1045 20.7497 9.96777 21.0869 9.69434C21.4242 9.4209 21.611 9.0791 21.6475 8.66895H22.8438C22.821 9.09277 22.6751 9.49609 22.4062 9.87891C22.1374 10.2617 21.7773 10.5671 21.3262 10.7949C20.8796 11.0228 20.4056 11.1367 19.9043 11.1367C18.8971 11.1367 18.0951 10.8018 17.498 10.1318C16.9056 9.45736 16.6094 8.53678 16.6094 7.37012V7.1582C16.6094 6.43815 16.7415 5.79785 17.0059 5.2373C17.2702 4.67676 17.6484 4.24154 18.1406 3.93164C18.6374 3.62174 19.223 3.4668 19.8975 3.4668C20.7269 3.4668 21.415 3.71517 21.9619 4.21191C22.5133 4.70866 22.8073 5.35352 22.8438 6.14648H21.6475C21.611 5.66797 21.4287 5.27604 21.1006 4.9707C20.777 4.66081 20.376 4.50586 19.8975 4.50586C19.2549 4.50586 18.7559 4.73828 18.4004 5.20312C18.0495 5.66341 17.874 6.33105 17.874 7.20605V7.44531C17.874 8.29753 18.0495 8.95378 18.4004 9.41406C18.7513 9.87435 19.2526 10.1045 19.9043 10.1045ZM25.6396 11H24.375V3.60352H25.6396V11ZM24.2725 1.6416C24.2725 1.43652 24.334 1.26335 24.457 1.12207C24.5846 0.980794 24.7715 0.910156 25.0176 0.910156C25.2637 0.910156 25.4505 0.980794 25.5781 1.12207C25.7057 1.26335 25.7695 1.43652 25.7695 1.6416C25.7695 1.84668 25.7057 2.01758 25.5781 2.1543C25.4505 2.29102 25.2637 2.35938 25.0176 2.35938C24.7715 2.35938 24.5846 2.29102 24.457 2.1543C24.334 2.01758 24.2725 1.84668 24.2725 1.6416ZM28.8662 3.60352L28.9072 4.5332C29.4723 3.82227 30.2106 3.4668 31.1221 3.4668C32.6852 3.4668 33.4736 4.34863 33.4873 6.1123V11H32.2227V6.10547C32.2181 5.57227 32.0951 5.17806 31.8535 4.92285C31.6165 4.66764 31.2451 4.54004 30.7393 4.54004C30.3291 4.54004 29.9691 4.64941 29.6592 4.86816C29.3493 5.08691 29.1077 5.37402 28.9346 5.72949V11H27.6699V3.60352H28.8662ZM35.0938 7.24023C35.0938 6.08724 35.3604 5.17122 35.8936 4.49219C36.4268 3.80859 37.1331 3.4668 38.0127 3.4668C38.915 3.4668 39.6191 3.78581 40.125 4.42383L40.1865 3.60352H41.3418V10.8223C41.3418 11.7793 41.057 12.5335 40.4873 13.085C39.9222 13.6364 39.1611 13.9121 38.2041 13.9121C37.6709 13.9121 37.1491 13.7982 36.6387 13.5703C36.1283 13.3424 35.7386 13.0303 35.4697 12.6338L36.126 11.875C36.6683 12.5449 37.3314 12.8799 38.1152 12.8799C38.7305 12.8799 39.209 12.7067 39.5508 12.3604C39.8971 12.014 40.0703 11.5264 40.0703 10.8975V10.2617C39.5645 10.8451 38.874 11.1367 37.999 11.1367C37.1331 11.1367 36.4313 10.7881 35.8936 10.0908C35.3604 9.39355 35.0938 8.44336 35.0938 7.24023ZM36.3652 7.38379C36.3652 8.21777 36.5361 8.87402 36.8779 9.35254C37.2197 9.8265 37.6982 10.0635 38.3135 10.0635C39.111 10.0635 39.6966 9.70117 40.0703 8.97656V5.59961C39.6829 4.89323 39.1019 4.54004 38.3271 4.54004C37.7119 4.54004 37.2311 4.7793 36.8848 5.25781C36.5384 5.73633 36.3652 6.44499 36.3652 7.38379Z" fill="#646F79"/>
</svg>
