<svg width="65" height="11" viewBox="0 0 65 11" fill="none" xmlns="http://www.w3.org/2000/svg">
<path d="M4.52734 5.97363H2.18945V10H0.870117V0.046875H4.16504C5.28613 0.046875 6.14746 0.302083 6.74902 0.8125C7.35514 1.32292 7.6582 2.06576 7.6582 3.04102C7.6582 3.66081 7.48958 4.20085 7.15234 4.66113C6.81966 5.12142 6.35482 5.46549 5.75781 5.69336L8.0957 9.91797V10H6.6875L4.52734 5.97363ZM2.18945 4.90039H4.20605C4.85775 4.90039 5.375 4.73177 5.75781 4.39453C6.14518 4.05729 6.33887 3.60612 6.33887 3.04102C6.33887 2.42578 6.1543 1.9541 5.78516 1.62598C5.42057 1.29785 4.89193 1.13151 4.19922 1.12695H2.18945V4.90039ZM12.375 10.1367C11.3724 10.1367 10.5566 9.80859 9.92773 9.15234C9.29883 8.49154 8.98438 7.6097 8.98438 6.50684V6.27441C8.98438 5.54069 9.12337 4.88672 9.40137 4.3125C9.68392 3.73372 10.0758 3.28255 10.5771 2.95898C11.083 2.63086 11.6299 2.4668 12.2178 2.4668C13.1794 2.4668 13.9268 2.78353 14.46 3.41699C14.9932 4.05046 15.2598 4.95736 15.2598 6.1377V6.66406H10.249C10.2673 7.39323 10.4792 7.9834 10.8848 8.43457C11.2949 8.88118 11.8145 9.10449 12.4434 9.10449C12.89 9.10449 13.2682 9.01335 13.5781 8.83105C13.888 8.64876 14.1592 8.40723 14.3916 8.10645L15.1641 8.70801C14.5443 9.66048 13.6146 10.1367 12.375 10.1367ZM12.2178 3.50586C11.7074 3.50586 11.279 3.69271 10.9326 4.06641C10.5863 4.43555 10.3721 4.95508 10.29 5.625H13.9951V5.5293C13.9587 4.88672 13.7855 4.38997 13.4756 4.03906C13.1657 3.68359 12.7464 3.50586 12.2178 3.50586ZM21.0361 8.03809C21.0361 7.69629 20.9062 7.43197 20.6465 7.24512C20.3913 7.05371 19.9424 6.88965 19.2998 6.75293C18.6618 6.61621 18.1536 6.45215 17.7754 6.26074C17.4017 6.06934 17.1237 5.84147 16.9414 5.57715C16.7637 5.31283 16.6748 4.99837 16.6748 4.63379C16.6748 4.02767 16.93 3.51497 17.4404 3.0957C17.9554 2.67643 18.6117 2.4668 19.4092 2.4668C20.2477 2.4668 20.9268 2.68327 21.4463 3.11621C21.9704 3.54915 22.2324 4.10286 22.2324 4.77734H20.9609C20.9609 4.43099 20.8128 4.13249 20.5166 3.88184C20.2249 3.63118 19.8558 3.50586 19.4092 3.50586C18.9489 3.50586 18.5889 3.60612 18.3291 3.80664C18.0693 4.00716 17.9395 4.26921 17.9395 4.59277C17.9395 4.89811 18.0602 5.12826 18.3018 5.2832C18.5433 5.43815 18.9785 5.58626 19.6074 5.72754C20.2409 5.86882 20.7536 6.03743 21.1455 6.2334C21.5374 6.42936 21.8268 6.66634 22.0137 6.94434C22.2051 7.21777 22.3008 7.55273 22.3008 7.94922C22.3008 8.61003 22.0365 9.14095 21.5078 9.54199C20.9792 9.93848 20.2933 10.1367 19.4502 10.1367C18.8577 10.1367 18.3337 10.0319 17.8779 9.82227C17.4222 9.61263 17.0645 9.32096 16.8047 8.94727C16.5495 8.56901 16.4219 8.16113 16.4219 7.72363H17.6865C17.7093 8.14746 17.8779 8.4847 18.1924 8.73535C18.5114 8.98145 18.9307 9.10449 19.4502 9.10449C19.9287 9.10449 20.3115 9.00879 20.5986 8.81738C20.8903 8.62142 21.0361 8.36165 21.0361 8.03809ZM23.6133 6.2334C23.6133 5.50879 23.7546 4.8571 24.0371 4.27832C24.3242 3.69954 24.7207 3.25293 25.2266 2.93848C25.737 2.62402 26.318 2.4668 26.9697 2.4668C27.9769 2.4668 28.7904 2.81543 29.4102 3.5127C30.0345 4.20996 30.3467 5.13737 30.3467 6.29492V6.38379C30.3467 7.10384 30.2077 7.75098 29.9297 8.3252C29.6562 8.89486 29.262 9.33919 28.7471 9.6582C28.2367 9.97721 27.6488 10.1367 26.9834 10.1367C25.9808 10.1367 25.1673 9.78809 24.543 9.09082C23.9232 8.39355 23.6133 7.4707 23.6133 6.32227V6.2334ZM24.8848 6.38379C24.8848 7.2041 25.0739 7.86263 25.4521 8.35938C25.835 8.85612 26.3454 9.10449 26.9834 9.10449C27.626 9.10449 28.1364 8.85384 28.5146 8.35254C28.8929 7.84668 29.082 7.1403 29.082 6.2334C29.082 5.4222 28.8883 4.76595 28.501 4.26465C28.1182 3.75879 27.6077 3.50586 26.9697 3.50586C26.3454 3.50586 25.8418 3.75423 25.459 4.25098C25.0762 4.74772 24.8848 5.45866 24.8848 6.38379ZM36.499 9.26855C36.0068 9.84733 35.2845 10.1367 34.332 10.1367C33.5436 10.1367 32.9421 9.90885 32.5273 9.45312C32.1172 8.99284 31.9098 8.3138 31.9053 7.41602V2.60352H33.1699V7.38184C33.1699 8.50293 33.6257 9.06348 34.5371 9.06348C35.5033 9.06348 36.1458 8.70345 36.4648 7.9834V2.60352H37.7295V10H36.5264L36.499 9.26855ZM43.2324 3.73828C43.041 3.70638 42.8337 3.69043 42.6104 3.69043C41.7809 3.69043 41.2181 4.04362 40.9219 4.75V10H39.6572V2.60352H40.8877L40.9082 3.45801C41.3229 2.7972 41.9108 2.4668 42.6719 2.4668C42.918 2.4668 43.1048 2.4987 43.2324 2.5625V3.73828ZM47.2314 9.10449C47.6826 9.10449 48.0768 8.96777 48.4141 8.69434C48.7513 8.4209 48.9382 8.0791 48.9746 7.66895H50.1709C50.1481 8.09277 50.0023 8.49609 49.7334 8.87891C49.4645 9.26172 49.1045 9.56706 48.6533 9.79492C48.2067 10.0228 47.7327 10.1367 47.2314 10.1367C46.2243 10.1367 45.4222 9.80176 44.8252 9.13184C44.2327 8.45736 43.9365 7.53678 43.9365 6.37012V6.1582C43.9365 5.43815 44.0687 4.79785 44.333 4.2373C44.5973 3.67676 44.9756 3.24154 45.4678 2.93164C45.9645 2.62174 46.5501 2.4668 47.2246 2.4668C48.054 2.4668 48.7422 2.71517 49.2891 3.21191C49.8405 3.70866 50.1344 4.35352 50.1709 5.14648H48.9746C48.9382 4.66797 48.7559 4.27604 48.4277 3.9707C48.1042 3.66081 47.7031 3.50586 47.2246 3.50586C46.582 3.50586 46.083 3.73828 45.7275 4.20312C45.3766 4.66341 45.2012 5.33105 45.2012 6.20605V6.44531C45.2012 7.29753 45.3766 7.95378 45.7275 8.41406C46.0785 8.87435 46.5798 9.10449 47.2314 9.10449ZM54.6621 10.1367C53.6595 10.1367 52.8438 9.80859 52.2148 9.15234C51.5859 8.49154 51.2715 7.6097 51.2715 6.50684V6.27441C51.2715 5.54069 51.4105 4.88672 51.6885 4.3125C51.971 3.73372 52.363 3.28255 52.8643 2.95898C53.3701 2.63086 53.917 2.4668 54.5049 2.4668C55.4665 2.4668 56.2139 2.78353 56.7471 3.41699C57.2803 4.05046 57.5469 4.95736 57.5469 6.1377V6.66406H52.5361C52.5544 7.39323 52.7663 7.9834 53.1719 8.43457C53.582 8.88118 54.1016 9.10449 54.7305 9.10449C55.1771 9.10449 55.5553 9.01335 55.8652 8.83105C56.1751 8.64876 56.4463 8.40723 56.6787 8.10645L57.4512 8.70801C56.8314 9.66048 55.9017 10.1367 54.6621 10.1367ZM54.5049 3.50586C53.9945 3.50586 53.5661 3.69271 53.2197 4.06641C52.8734 4.43555 52.6592 4.95508 52.5771 5.625H56.2822V5.5293C56.2458 4.88672 56.0726 4.38997 55.7627 4.03906C55.4528 3.68359 55.0335 3.50586 54.5049 3.50586ZM63.3232 8.03809C63.3232 7.69629 63.1934 7.43197 62.9336 7.24512C62.6784 7.05371 62.2295 6.88965 61.5869 6.75293C60.9489 6.61621 60.4408 6.45215 60.0625 6.26074C59.6888 6.06934 59.4108 5.84147 59.2285 5.57715C59.0508 5.31283 58.9619 4.99837 58.9619 4.63379C58.9619 4.02767 59.2171 3.51497 59.7275 3.0957C60.2425 2.67643 60.8988 2.4668 61.6963 2.4668C62.5348 2.4668 63.2139 2.68327 63.7334 3.11621C64.2575 3.54915 64.5195 4.10286 64.5195 4.77734H63.248C63.248 4.43099 63.0999 4.13249 62.8037 3.88184C62.512 3.63118 62.1429 3.50586 61.6963 3.50586C61.236 3.50586 60.876 3.60612 60.6162 3.80664C60.3564 4.00716 60.2266 4.26921 60.2266 4.59277C60.2266 4.89811 60.3473 5.12826 60.5889 5.2832C60.8304 5.43815 61.2656 5.58626 61.8945 5.72754C62.528 5.86882 63.0407 6.03743 63.4326 6.2334C63.8245 6.42936 64.1139 6.66634 64.3008 6.94434C64.4922 7.21777 64.5879 7.55273 64.5879 7.94922C64.5879 8.61003 64.3236 9.14095 63.7949 9.54199C63.2663 9.93848 62.5804 10.1367 61.7373 10.1367C61.1449 10.1367 60.6208 10.0319 60.165 9.82227C59.7093 9.61263 59.3516 9.32096 59.0918 8.94727C58.8366 8.56901 58.709 8.16113 58.709 7.72363H59.9736C59.9964 8.14746 60.165 8.4847 60.4795 8.73535C60.7985 8.98145 61.2178 9.10449 61.7373 9.10449C62.2158 9.10449 62.5986 9.00879 62.8857 8.81738C63.1774 8.62142 63.3232 8.36165 63.3232 8.03809Z" fill="#646F79"/>
</svg>
