<svg width="58" height="12" viewBox="0 0 58 12" fill="none" xmlns="http://www.w3.org/2000/svg">
<path d="M3.91895 6.56348C2.79329 6.23991 1.97298 5.84342 1.45801 5.37402C0.947591 4.90007 0.692383 4.31673 0.692383 3.62402C0.692383 2.84017 1.00456 2.19303 1.62891 1.68262C2.25781 1.16764 3.07357 0.910156 4.07617 0.910156C4.75977 0.910156 5.36816 1.04232 5.90137 1.30664C6.43913 1.57096 6.85384 1.93555 7.14551 2.40039C7.44173 2.86523 7.58984 3.37337 7.58984 3.9248H6.27051C6.27051 3.32324 6.0791 2.85156 5.69629 2.50977C5.31348 2.16341 4.77344 1.99023 4.07617 1.99023C3.42904 1.99023 2.92318 2.13379 2.55859 2.4209C2.19857 2.70345 2.01855 3.09766 2.01855 3.60352C2.01855 4.00911 2.18945 4.35319 2.53125 4.63574C2.8776 4.91374 3.46322 5.16895 4.28809 5.40137C5.11751 5.63379 5.76465 5.89128 6.22949 6.17383C6.69889 6.45182 7.04525 6.77767 7.26855 7.15137C7.49642 7.52507 7.61035 7.96484 7.61035 8.4707C7.61035 9.27734 7.2959 9.92448 6.66699 10.4121C6.03809 10.8952 5.19727 11.1367 4.14453 11.1367C3.46094 11.1367 2.82292 11.0068 2.23047 10.7471C1.63802 10.4827 1.18001 10.1227 0.856445 9.66699C0.537435 9.21126 0.37793 8.69401 0.37793 8.11523H1.69727C1.69727 8.7168 1.91829 9.19303 2.36035 9.54395C2.80697 9.8903 3.40169 10.0635 4.14453 10.0635C4.83724 10.0635 5.36816 9.9222 5.7373 9.63965C6.10645 9.3571 6.29102 8.97201 6.29102 8.48438C6.29102 7.99674 6.12012 7.62077 5.77832 7.35645C5.43652 7.08757 4.81673 6.82324 3.91895 6.56348ZM8.76562 7.2334C8.76562 6.50879 8.9069 5.8571 9.18945 5.27832C9.47656 4.69954 9.87305 4.25293 10.3789 3.93848C10.8893 3.62402 11.4704 3.4668 12.1221 3.4668C13.1292 3.4668 13.9427 3.81543 14.5625 4.5127C15.1868 5.20996 15.499 6.13737 15.499 7.29492V7.38379C15.499 8.10384 15.36 8.75098 15.082 9.3252C14.8086 9.89486 14.4144 10.3392 13.8994 10.6582C13.389 10.9772 12.8011 11.1367 12.1357 11.1367C11.1331 11.1367 10.3197 10.7881 9.69531 10.0908C9.07552 9.39355 8.76562 8.4707 8.76562 7.32227V7.2334ZM10.0371 7.38379C10.0371 8.2041 10.2262 8.86263 10.6045 9.35938C10.9873 9.85612 11.4977 10.1045 12.1357 10.1045C12.7783 10.1045 13.2887 9.85384 13.667 9.35254C14.0452 8.84668 14.2344 8.1403 14.2344 7.2334C14.2344 6.4222 14.0407 5.76595 13.6533 5.26465C13.2705 4.75879 12.7601 4.50586 12.1221 4.50586C11.4977 4.50586 10.9941 4.75423 10.6113 5.25098C10.2285 5.74772 10.0371 6.45866 10.0371 7.38379ZM18.459 11H17.1943V0.5H18.459V11ZM25.0557 10.2686C24.5635 10.8473 23.8411 11.1367 22.8887 11.1367C22.1003 11.1367 21.4987 10.9089 21.084 10.4531C20.6738 9.99284 20.4665 9.3138 20.4619 8.41602V3.60352H21.7266V8.38184C21.7266 9.50293 22.1823 10.0635 23.0938 10.0635C24.0599 10.0635 24.7025 9.70345 25.0215 8.9834V3.60352H26.2861V11H25.083L25.0557 10.2686ZM29.9297 1.8125V3.60352H31.3105V4.58105H29.9297V9.16797C29.9297 9.46419 29.9912 9.6875 30.1143 9.83789C30.2373 9.98372 30.4469 10.0566 30.7432 10.0566C30.889 10.0566 31.0895 10.0293 31.3447 9.97461V11C31.012 11.0911 30.6885 11.1367 30.374 11.1367C29.8089 11.1367 29.3828 10.9658 29.0957 10.624C28.8086 10.2822 28.665 9.79688 28.665 9.16797V4.58105H27.3184V3.60352H28.665V1.8125H29.9297ZM34.168 11H32.9033V3.60352H34.168V11ZM32.8008 1.6416C32.8008 1.43652 32.8623 1.26335 32.9854 1.12207C33.113 0.980794 33.2998 0.910156 33.5459 0.910156C33.792 0.910156 33.9788 0.980794 34.1064 1.12207C34.234 1.26335 34.2979 1.43652 34.2979 1.6416C34.2979 1.84668 34.234 2.01758 34.1064 2.1543C33.9788 2.29102 33.792 2.35938 33.5459 2.35938C33.2998 2.35938 33.113 2.29102 32.9854 2.1543C32.8623 2.01758 32.8008 1.84668 32.8008 1.6416ZM35.8633 7.2334C35.8633 6.50879 36.0046 5.8571 36.2871 5.27832C36.5742 4.69954 36.9707 4.25293 37.4766 3.93848C37.987 3.62402 38.568 3.4668 39.2197 3.4668C40.2269 3.4668 41.0404 3.81543 41.6602 4.5127C42.2845 5.20996 42.5967 6.13737 42.5967 7.29492V7.38379C42.5967 8.10384 42.4577 8.75098 42.1797 9.3252C41.9062 9.89486 41.512 10.3392 40.9971 10.6582C40.4867 10.9772 39.8988 11.1367 39.2334 11.1367C38.2308 11.1367 37.4173 10.7881 36.793 10.0908C36.1732 9.39355 35.8633 8.4707 35.8633 7.32227V7.2334ZM37.1348 7.38379C37.1348 8.2041 37.3239 8.86263 37.7021 9.35938C38.085 9.85612 38.5954 10.1045 39.2334 10.1045C39.876 10.1045 40.3864 9.85384 40.7646 9.35254C41.1429 8.84668 41.332 8.1403 41.332 7.2334C41.332 6.4222 41.1383 5.76595 40.751 5.26465C40.3682 4.75879 39.8577 4.50586 39.2197 4.50586C38.5954 4.50586 38.0918 4.75423 37.709 5.25098C37.3262 5.74772 37.1348 6.45866 37.1348 7.38379ZM45.3789 3.60352L45.4199 4.5332C45.985 3.82227 46.7233 3.4668 47.6348 3.4668C49.1979 3.4668 49.9863 4.34863 50 6.1123V11H48.7354V6.10547C48.7308 5.57227 48.6077 5.17806 48.3662 4.92285C48.1292 4.66764 47.7578 4.54004 47.252 4.54004C46.8418 4.54004 46.4818 4.64941 46.1719 4.86816C45.862 5.08691 45.6204 5.37402 45.4473 5.72949V11H44.1826V3.60352H45.3789ZM56.2139 9.03809C56.2139 8.69629 56.084 8.43197 55.8242 8.24512C55.569 8.05371 55.1201 7.88965 54.4775 7.75293C53.8395 7.61621 53.3314 7.45215 52.9531 7.26074C52.5794 7.06934 52.3014 6.84147 52.1191 6.57715C51.9414 6.31283 51.8525 5.99837 51.8525 5.63379C51.8525 5.02767 52.1077 4.51497 52.6182 4.0957C53.1331 3.67643 53.7894 3.4668 54.5869 3.4668C55.4255 3.4668 56.1045 3.68327 56.624 4.11621C57.1481 4.54915 57.4102 5.10286 57.4102 5.77734H56.1387C56.1387 5.43099 55.9906 5.13249 55.6943 4.88184C55.4027 4.63118 55.0335 4.50586 54.5869 4.50586C54.1266 4.50586 53.7666 4.60612 53.5068 4.80664C53.2471 5.00716 53.1172 5.26921 53.1172 5.59277C53.1172 5.89811 53.238 6.12826 53.4795 6.2832C53.721 6.43815 54.1562 6.58626 54.7852 6.72754C55.4186 6.86882 55.9313 7.03743 56.3232 7.2334C56.7152 7.42936 57.0046 7.66634 57.1914 7.94434C57.3828 8.21777 57.4785 8.55273 57.4785 8.94922C57.4785 9.61003 57.2142 10.141 56.6855 10.542C56.1569 10.9385 55.471 11.1367 54.6279 11.1367C54.0355 11.1367 53.5114 11.0319 53.0557 10.8223C52.5999 10.6126 52.2422 10.321 51.9824 9.94727C51.7272 9.56901 51.5996 9.16113 51.5996 8.72363H52.8643C52.887 9.14746 53.0557 9.4847 53.3701 9.73535C53.6891 9.98145 54.1084 10.1045 54.6279 10.1045C55.1064 10.1045 55.4893 10.0088 55.7764 9.81738C56.068 9.62142 56.2139 9.36165 56.2139 9.03809Z" fill="#646F79"/>
</svg>
