<svg width="83" height="17" viewBox="0 0 83 17" fill="none" xmlns="http://www.w3.org/2000/svg">
<path d="M8.96094 2.85938H5.30469V13H3.8125V2.85938H0.164062V1.625H8.96094V2.85938ZM14.4141 5.84375C14.1953 5.80729 13.9583 5.78906 13.7031 5.78906C12.7552 5.78906 12.112 6.19271 11.7734 7V13H10.3281V4.54688H11.7344L11.7578 5.52344C12.2318 4.76823 12.9036 4.39062 13.7734 4.39062C14.0547 4.39062 14.2682 4.42708 14.4141 4.5V5.84375ZM19.1562 10.8828L21.125 4.54688H22.6719L19.2734 14.3047C18.7474 15.7109 17.9115 16.4141 16.7656 16.4141L16.4922 16.3906L15.9531 16.2891V15.1172L16.3438 15.1484C16.8333 15.1484 17.2135 15.0495 17.4844 14.8516C17.7604 14.6536 17.987 14.2917 18.1641 13.7656L18.4844 12.9062L15.4688 4.54688H17.0469L19.1562 10.8828ZM29.6484 13V5.66406H28.3125V4.54688H29.6484V3.67969C29.6484 2.77344 29.8906 2.07292 30.375 1.57812C30.8594 1.08333 31.5443 0.835938 32.4297 0.835938C32.763 0.835938 33.0938 0.880208 33.4219 0.96875L33.3438 2.14062C33.099 2.09375 32.8385 2.07031 32.5625 2.07031C32.0938 2.07031 31.7318 2.20833 31.4766 2.48438C31.2214 2.75521 31.0938 3.14583 31.0938 3.65625V4.54688H32.8984V5.66406H31.0938V13H29.6484ZM34.6172 8.69531C34.6172 7.86719 34.7786 7.1224 35.1016 6.46094C35.4297 5.79948 35.8828 5.28906 36.4609 4.92969C37.0443 4.57031 37.7083 4.39062 38.4531 4.39062C39.6042 4.39062 40.5339 4.78906 41.2422 5.58594C41.9557 6.38281 42.3125 7.44271 42.3125 8.76562V8.86719C42.3125 9.6901 42.1536 10.4297 41.8359 11.0859C41.5234 11.737 41.0729 12.2448 40.4844 12.6094C39.901 12.974 39.2292 13.1562 38.4688 13.1562C37.3229 13.1562 36.3932 12.7578 35.6797 11.9609C34.9714 11.1641 34.6172 10.1094 34.6172 8.79688V8.69531ZM36.0703 8.86719C36.0703 9.80469 36.2865 10.5573 36.7188 11.125C37.1562 11.6927 37.7396 11.9766 38.4688 11.9766C39.2031 11.9766 39.7865 11.6901 40.2188 11.1172C40.651 10.5391 40.8672 9.73177 40.8672 8.69531C40.8672 7.76823 40.6458 7.01823 40.2031 6.44531C39.7656 5.86719 39.1823 5.57812 38.4531 5.57812C37.7396 5.57812 37.1641 5.86198 36.7266 6.42969C36.2891 6.9974 36.0703 7.8099 36.0703 8.86719ZM48.7109 5.84375C48.4922 5.80729 48.2552 5.78906 48 5.78906C47.0521 5.78906 46.4089 6.19271 46.0703 7V13H44.625V4.54688H46.0312L46.0547 5.52344C46.5286 4.76823 47.2005 4.39062 48.0703 4.39062C48.3516 4.39062 48.5651 4.42708 48.7109 4.5V5.84375ZM55.7266 13V5.66406H54.3906V4.54688H55.7266V3.67969C55.7266 2.77344 55.9688 2.07292 56.4531 1.57812C56.9375 1.08333 57.6224 0.835938 58.5078 0.835938C58.8411 0.835938 59.1719 0.880208 59.5 0.96875L59.4219 2.14062C59.1771 2.09375 58.9167 2.07031 58.6406 2.07031C58.1719 2.07031 57.8099 2.20833 57.5547 2.48438C57.2995 2.75521 57.1719 3.14583 57.1719 3.65625V4.54688H58.9766V5.66406H57.1719V13H55.7266ZM65.1641 5.84375C64.9453 5.80729 64.7083 5.78906 64.4531 5.78906C63.5052 5.78906 62.862 6.19271 62.5234 7V13H61.0781V4.54688H62.4844L62.5078 5.52344C62.9818 4.76823 63.6536 4.39062 64.5234 4.39062C64.8047 4.39062 65.0182 4.42708 65.1641 4.5V5.84375ZM70.3516 13.1562C69.2057 13.1562 68.2734 12.7812 67.5547 12.0312C66.8359 11.276 66.4766 10.2682 66.4766 9.00781V8.74219C66.4766 7.90365 66.6354 7.15625 66.9531 6.5C67.276 5.83854 67.724 5.32292 68.2969 4.95312C68.875 4.57812 69.5 4.39062 70.1719 4.39062C71.2708 4.39062 72.125 4.7526 72.7344 5.47656C73.3438 6.20052 73.6484 7.23698 73.6484 8.58594V9.1875H67.9219C67.9427 10.0208 68.1849 10.6953 68.6484 11.2109C69.1172 11.7214 69.7109 11.9766 70.4297 11.9766C70.9401 11.9766 71.3724 11.8724 71.7266 11.6641C72.0807 11.4557 72.3906 11.1797 72.6562 10.8359L73.5391 11.5234C72.8307 12.612 71.7682 13.1562 70.3516 13.1562ZM70.1719 5.57812C69.5885 5.57812 69.099 5.79167 68.7031 6.21875C68.3073 6.64062 68.0625 7.23438 67.9688 8H72.2031V7.89062C72.1615 7.15625 71.9635 6.58854 71.6094 6.1875C71.2552 5.78125 70.776 5.57812 70.1719 5.57812ZM79.3359 13.1562C78.1901 13.1562 77.2578 12.7812 76.5391 12.0312C75.8203 11.276 75.4609 10.2682 75.4609 9.00781V8.74219C75.4609 7.90365 75.6198 7.15625 75.9375 6.5C76.2604 5.83854 76.7083 5.32292 77.2812 4.95312C77.8594 4.57812 78.4844 4.39062 79.1562 4.39062C80.2552 4.39062 81.1094 4.7526 81.7188 5.47656C82.3281 6.20052 82.6328 7.23698 82.6328 8.58594V9.1875H76.9062C76.9271 10.0208 77.1693 10.6953 77.6328 11.2109C78.1016 11.7214 78.6953 11.9766 79.4141 11.9766C79.9245 11.9766 80.3568 11.8724 80.7109 11.6641C81.0651 11.4557 81.375 11.1797 81.6406 10.8359L82.5234 11.5234C81.8151 12.612 80.7526 13.1562 79.3359 13.1562ZM79.1562 5.57812C78.5729 5.57812 78.0833 5.79167 77.6875 6.21875C77.2917 6.64062 77.0469 7.23438 76.9531 8H81.1875V7.89062C81.1458 7.15625 80.9479 6.58854 80.5938 6.1875C80.2396 5.78125 79.7604 5.57812 79.1562 5.57812Z" fill="white"/>
</svg>
