<svg width="120" height="36" viewBox="0 0 120 36" fill="none" xmlns="http://www.w3.org/2000/svg">
<path d="M0 3C0 1.34315 1.34315 0 3 0H117C118.657 0 120 1.34315 120 3V33C120 34.6569 118.657 36 117 36H3C1.34314 36 0 34.6569 0 33V3Z" fill="#796EFF"/>
<path d="M31.1846 14.127H27.9854V23H26.6797V14.127H23.4873V13.0469H31.1846V14.127ZM36.0186 16.7383C35.8271 16.7064 35.6198 16.6904 35.3965 16.6904C34.5671 16.6904 34.0042 17.0436 33.708 17.75V23H32.4434V15.6035H33.6738L33.6943 16.458C34.109 15.7972 34.6969 15.4668 35.458 15.4668C35.7041 15.4668 35.891 15.4987 36.0186 15.5625V16.7383ZM40.2305 21.1475L41.9531 15.6035H43.3066L40.333 24.1416C39.8727 25.3721 39.1413 25.9873 38.1387 25.9873L37.8994 25.9668L37.4277 25.8779V24.8525L37.7695 24.8799C38.1979 24.8799 38.5306 24.7933 38.7676 24.6201C39.0091 24.4469 39.2074 24.1302 39.3623 23.6699L39.6426 22.918L37.0039 15.6035H38.3848L40.2305 21.1475ZM49.5361 23V16.5811H48.3672V15.6035H49.5361V14.8447C49.5361 14.0518 49.748 13.4388 50.1719 13.0059C50.5957 12.5729 51.195 12.3564 51.9697 12.3564C52.2614 12.3564 52.5508 12.3952 52.8379 12.4727L52.7695 13.498C52.5553 13.457 52.3275 13.4365 52.0859 13.4365C51.6758 13.4365 51.359 13.5573 51.1357 13.7988C50.9124 14.0358 50.8008 14.3776 50.8008 14.8242V15.6035H52.3799V16.5811H50.8008V23H49.5361ZM53.9463 19.2334C53.9463 18.5088 54.0876 17.8571 54.3701 17.2783C54.6572 16.6995 55.0537 16.2529 55.5596 15.9385C56.07 15.624 56.651 15.4668 57.3027 15.4668C58.3099 15.4668 59.1234 15.8154 59.7432 16.5127C60.3675 17.21 60.6797 18.1374 60.6797 19.2949V19.3838C60.6797 20.1038 60.5407 20.751 60.2627 21.3252C59.9893 21.8949 59.5951 22.3392 59.0801 22.6582C58.5697 22.9772 57.9818 23.1367 57.3164 23.1367C56.3138 23.1367 55.5003 22.7881 54.876 22.0908C54.2562 21.3936 53.9463 20.4707 53.9463 19.3223V19.2334ZM55.2178 19.3838C55.2178 20.2041 55.4069 20.8626 55.7852 21.3594C56.168 21.8561 56.6784 22.1045 57.3164 22.1045C57.959 22.1045 58.4694 21.8538 58.8477 21.3525C59.2259 20.8467 59.415 20.1403 59.415 19.2334C59.415 18.4222 59.2214 17.766 58.834 17.2646C58.4512 16.7588 57.9408 16.5059 57.3027 16.5059C56.6784 16.5059 56.1748 16.7542 55.792 17.251C55.4092 17.7477 55.2178 18.4587 55.2178 19.3838ZM66.3408 16.7383C66.1494 16.7064 65.9421 16.6904 65.7188 16.6904C64.8893 16.6904 64.3265 17.0436 64.0303 17.75V23H62.7656V15.6035H63.9961L64.0166 16.458C64.4313 15.7972 65.0192 15.4668 65.7803 15.4668C66.0264 15.4668 66.2132 15.4987 66.3408 15.5625V16.7383ZM72.6045 23V16.5811H71.4355V15.6035H72.6045V14.8447C72.6045 14.0518 72.8164 13.4388 73.2402 13.0059C73.6641 12.5729 74.2633 12.3564 75.0381 12.3564C75.3298 12.3564 75.6191 12.3952 75.9062 12.4727L75.8379 13.498C75.6237 13.457 75.3958 13.4365 75.1543 13.4365C74.7441 13.4365 74.4274 13.5573 74.2041 13.7988C73.9808 14.0358 73.8691 14.3776 73.8691 14.8242V15.6035H75.4482V16.5811H73.8691V23H72.6045ZM80.9248 16.7383C80.7334 16.7064 80.526 16.6904 80.3027 16.6904C79.4733 16.6904 78.9105 17.0436 78.6143 17.75V23H77.3496V15.6035H78.5801L78.6006 16.458C79.0153 15.7972 79.6032 15.4668 80.3643 15.4668C80.6104 15.4668 80.7972 15.4987 80.9248 15.5625V16.7383ZM85.5264 23.1367C84.5238 23.1367 83.708 22.8086 83.0791 22.1523C82.4502 21.4915 82.1357 20.6097 82.1357 19.5068V19.2744C82.1357 18.5407 82.2747 17.8867 82.5527 17.3125C82.8353 16.7337 83.2272 16.2826 83.7285 15.959C84.2344 15.6309 84.7812 15.4668 85.3691 15.4668C86.3307 15.4668 87.0781 15.7835 87.6113 16.417C88.1445 17.0505 88.4111 17.9574 88.4111 19.1377V19.6641H83.4004C83.4186 20.3932 83.6305 20.9834 84.0361 21.4346C84.4463 21.8812 84.9658 22.1045 85.5947 22.1045C86.0413 22.1045 86.4196 22.0133 86.7295 21.8311C87.0394 21.6488 87.3105 21.4072 87.543 21.1064L88.3154 21.708C87.6956 22.6605 86.766 23.1367 85.5264 23.1367ZM85.3691 16.5059C84.8587 16.5059 84.4303 16.6927 84.084 17.0664C83.7376 17.4355 83.5234 17.9551 83.4414 18.625H87.1465V18.5293C87.11 17.8867 86.9368 17.39 86.627 17.0391C86.3171 16.6836 85.8978 16.5059 85.3691 16.5059ZM93.4502 23.1367C92.4476 23.1367 91.6318 22.8086 91.0029 22.1523C90.374 21.4915 90.0596 20.6097 90.0596 19.5068V19.2744C90.0596 18.5407 90.1986 17.8867 90.4766 17.3125C90.7591 16.7337 91.151 16.2826 91.6523 15.959C92.1582 15.6309 92.7051 15.4668 93.293 15.4668C94.2546 15.4668 95.002 15.7835 95.5352 16.417C96.0684 17.0505 96.335 17.9574 96.335 19.1377V19.6641H91.3242C91.3424 20.3932 91.5544 20.9834 91.96 21.4346C92.3701 21.8812 92.8896 22.1045 93.5186 22.1045C93.9652 22.1045 94.3434 22.0133 94.6533 21.8311C94.9632 21.6488 95.2344 21.4072 95.4668 21.1064L96.2393 21.708C95.6195 22.6605 94.6898 23.1367 93.4502 23.1367ZM93.293 16.5059C92.7826 16.5059 92.3542 16.6927 92.0078 17.0664C91.6615 17.4355 91.4473 17.9551 91.3652 18.625H95.0703V18.5293C95.0339 17.8867 94.8607 17.39 94.5508 17.0391C94.2409 16.6836 93.8216 16.5059 93.293 16.5059Z" fill="white"/>
</svg>
