<svg width="32" height="32" viewBox="0 0 32 32" fill="none" xmlns="http://www.w3.org/2000/svg">
<path d="M16 0C7.1632 0 0 7.1648 0 16C0 24.8368 7.1632 32 16 32C24.8368 32 32 24.8368 32 16C32 7.1648 24.8368 0 16 0Z" fill="#151B26"/>
<path d="M23.2622 13.2432C23.2686 13.384 23.2702 13.5264 23.2702 13.6688C23.2702 18.0144 19.9646 23.024 13.915 23.024C12.059 23.024 10.3294 22.48 8.875 21.5472C9.1326 21.5776 9.3934 21.592 9.659 21.592C11.1998 21.592 12.6174 21.0672 13.7422 20.184C12.3038 20.1584 11.0894 19.208 10.6718 17.9008C10.8718 17.9392 11.0782 17.9584 11.2894 17.9584C11.5902 17.9584 11.8798 17.92 12.1566 17.8432C10.651 17.5424 9.5182 16.2128 9.5182 14.6192V14.5808C9.9614 14.8256 10.4702 14.9744 11.0078 14.992C10.1262 14.4016 9.5454 13.3952 9.5454 12.256C9.5454 11.6528 9.707 11.088 9.9902 10.6016C11.6126 12.592 14.035 13.9008 16.7678 14.0368C16.7118 13.7968 16.683 13.5456 16.683 13.288C16.683 11.472 18.155 10 19.9694 10C20.915 10 21.771 10.3984 22.3694 11.0384C23.1198 10.8912 23.8222 10.6176 24.4574 10.2416C24.2126 11.0096 23.691 11.6528 23.0126 12.0608C23.6766 11.9808 24.3118 11.8048 24.9006 11.5424C24.4622 12.2 23.9038 12.7792 23.2622 13.2432Z" fill="white"/>
</svg>
