<svg width="77" height="14" viewBox="0 0 77 14" fill="none" xmlns="http://www.w3.org/2000/svg">
<path d="M3.71875 7.8623L3.91016 9.1748L4.19043 7.99219L6.15918 1.04688H7.2666L9.1875 7.99219L9.46094 9.19531L9.67285 7.85547L11.2178 1.04688H12.5371L10.124 11H8.92773L6.87695 3.74707L6.71973 2.98828L6.5625 3.74707L4.43652 11H3.24023L0.833984 1.04688H2.14648L3.71875 7.8623ZM15.0664 4.49902C15.627 3.81087 16.3561 3.4668 17.2539 3.4668C18.8171 3.4668 19.6055 4.34863 19.6191 6.1123V11H18.3545V6.10547C18.3499 5.57227 18.2269 5.17806 17.9854 4.92285C17.7484 4.66764 17.377 4.54004 16.8711 4.54004C16.4609 4.54004 16.1009 4.64941 15.791 4.86816C15.4811 5.08691 15.2396 5.37402 15.0664 5.72949V11H13.8018V0.5H15.0664V4.49902ZM23.9326 9.14746L25.6553 3.60352H27.0088L24.0352 12.1416C23.5749 13.3721 22.8434 13.9873 21.8408 13.9873L21.6016 13.9668L21.1299 13.8779V12.8525L21.4717 12.8799C21.9001 12.8799 22.2327 12.7933 22.4697 12.6201C22.7113 12.4469 22.9095 12.1302 23.0645 11.6699L23.3447 10.918L20.7061 3.60352H22.0869L23.9326 9.14746ZM37.3105 8.40234H33.1406L32.2041 11H30.8506L34.6514 1.04688H35.7998L39.6074 11H38.2607L37.3105 8.40234ZM33.5371 7.32227H36.9209L35.2256 2.66699L33.5371 7.32227ZM45.0557 9.03809C45.0557 8.69629 44.9258 8.43197 44.666 8.24512C44.4108 8.05371 43.9619 7.88965 43.3193 7.75293C42.6813 7.61621 42.1732 7.45215 41.7949 7.26074C41.4212 7.06934 41.1432 6.84147 40.9609 6.57715C40.7832 6.31283 40.6943 5.99837 40.6943 5.63379C40.6943 5.02767 40.9495 4.51497 41.46 4.0957C41.9749 3.67643 42.6312 3.4668 43.4287 3.4668C44.2673 3.4668 44.9463 3.68327 45.4658 4.11621C45.9899 4.54915 46.252 5.10286 46.252 5.77734H44.9805C44.9805 5.43099 44.8324 5.13249 44.5361 4.88184C44.2445 4.63118 43.8753 4.50586 43.4287 4.50586C42.9684 4.50586 42.6084 4.60612 42.3486 4.80664C42.0889 5.00716 41.959 5.26921 41.959 5.59277C41.959 5.89811 42.0798 6.12826 42.3213 6.2832C42.5628 6.43815 42.998 6.58626 43.627 6.72754C44.2604 6.86882 44.7731 7.03743 45.165 7.2334C45.557 7.42936 45.8464 7.66634 46.0332 7.94434C46.2246 8.21777 46.3203 8.55273 46.3203 8.94922C46.3203 9.61003 46.056 10.141 45.5273 10.542C44.9987 10.9385 44.3128 11.1367 43.4697 11.1367C42.8773 11.1367 42.3532 11.0319 41.8975 10.8223C41.4417 10.6126 41.084 10.321 40.8242 9.94727C40.569 9.56901 40.4414 9.16113 40.4414 8.72363H41.7061C41.7288 9.14746 41.8975 9.4847 42.2119 9.73535C42.5309 9.98145 42.9502 10.1045 43.4697 10.1045C43.9482 10.1045 44.3311 10.0088 44.6182 9.81738C44.9098 9.62142 45.0557 9.36165 45.0557 9.03809ZM52.5342 11C52.4613 10.8542 52.402 10.5944 52.3564 10.2207C51.7686 10.8314 51.0667 11.1367 50.251 11.1367C49.5218 11.1367 48.9225 10.9316 48.4531 10.5215C47.9883 10.1068 47.7559 9.58268 47.7559 8.94922C47.7559 8.17904 48.0475 7.58203 48.6309 7.1582C49.2188 6.72982 50.0436 6.51562 51.1055 6.51562H52.3359V5.93457C52.3359 5.49251 52.2038 5.1416 51.9395 4.88184C51.6751 4.61751 51.2855 4.48535 50.7705 4.48535C50.3193 4.48535 49.9411 4.59928 49.6357 4.82715C49.3304 5.05501 49.1777 5.33073 49.1777 5.6543H47.9062C47.9062 5.28516 48.0361 4.92969 48.2959 4.58789C48.5602 4.24154 48.9157 3.9681 49.3623 3.76758C49.8135 3.56706 50.3079 3.4668 50.8457 3.4668C51.6979 3.4668 52.3656 3.68099 52.8486 4.10938C53.3317 4.5332 53.5824 5.11882 53.6006 5.86621V9.27051C53.6006 9.94954 53.6872 10.4896 53.8604 10.8906V11H52.5342ZM50.4355 10.0361C50.832 10.0361 51.208 9.93359 51.5635 9.72852C51.9189 9.52344 52.1764 9.25684 52.3359 8.92871V7.41113H51.3447C49.7952 7.41113 49.0205 7.86458 49.0205 8.77148C49.0205 9.16797 49.1527 9.47786 49.417 9.70117C49.6813 9.92448 50.0208 10.0361 50.4355 10.0361ZM56.7793 3.60352L56.8203 4.5332C57.3854 3.82227 58.1237 3.4668 59.0352 3.4668C60.5983 3.4668 61.3867 4.34863 61.4004 6.1123V11H60.1357V6.10547C60.1312 5.57227 60.0081 5.17806 59.7666 4.92285C59.5296 4.66764 59.1582 4.54004 58.6523 4.54004C58.2422 4.54004 57.8822 4.64941 57.5723 4.86816C57.2624 5.08691 57.0208 5.37402 56.8477 5.72949V11H55.583V3.60352H56.7793ZM67.874 11C67.8011 10.8542 67.7419 10.5944 67.6963 10.2207C67.1084 10.8314 66.4066 11.1367 65.5908 11.1367C64.8617 11.1367 64.2624 10.9316 63.793 10.5215C63.3281 10.1068 63.0957 9.58268 63.0957 8.94922C63.0957 8.17904 63.3874 7.58203 63.9707 7.1582C64.5586 6.72982 65.3835 6.51562 66.4453 6.51562H67.6758V5.93457C67.6758 5.49251 67.5436 5.1416 67.2793 4.88184C67.015 4.61751 66.6253 4.48535 66.1104 4.48535C65.6592 4.48535 65.2809 4.59928 64.9756 4.82715C64.6702 5.05501 64.5176 5.33073 64.5176 5.6543H63.2461C63.2461 5.28516 63.376 4.92969 63.6357 4.58789C63.9001 4.24154 64.2555 3.9681 64.7021 3.76758C65.1533 3.56706 65.6478 3.4668 66.1855 3.4668C67.0378 3.4668 67.7054 3.68099 68.1885 4.10938C68.6715 4.5332 68.9222 5.11882 68.9404 5.86621V9.27051C68.9404 9.94954 69.027 10.4896 69.2002 10.8906V11H67.874ZM65.7754 10.0361C66.1719 10.0361 66.5479 9.93359 66.9033 9.72852C67.2588 9.52344 67.5163 9.25684 67.6758 8.92871V7.41113H66.6846C65.1351 7.41113 64.3604 7.86458 64.3604 8.77148C64.3604 9.16797 64.4925 9.47786 64.7568 9.70117C65.0212 9.92448 65.3607 10.0361 65.7754 10.0361ZM72.4062 8.19727C72.4154 7.65495 72.4769 7.22656 72.5908 6.91211C72.7048 6.59766 72.9372 6.24902 73.2881 5.86621L74.1836 4.94336C74.5664 4.51042 74.7578 4.04557 74.7578 3.54883C74.7578 3.07031 74.6325 2.69661 74.3818 2.42773C74.1312 2.1543 73.7666 2.01758 73.2881 2.01758C72.8232 2.01758 72.4495 2.14062 72.167 2.38672C71.8844 2.63281 71.7432 2.96322 71.7432 3.37793H70.4785C70.4876 2.63965 70.7497 2.04492 71.2646 1.59375C71.7842 1.13802 72.4587 0.910156 73.2881 0.910156C74.1494 0.910156 74.8193 1.14258 75.2979 1.60742C75.7809 2.06771 76.0225 2.70117 76.0225 3.50781C76.0225 4.30534 75.6533 5.09147 74.915 5.86621L74.1699 6.60449C73.8372 6.97363 73.6709 7.50456 73.6709 8.19727H72.4062ZM72.3516 10.3643C72.3516 10.1592 72.4131 9.98828 72.5361 9.85156C72.6637 9.71029 72.8506 9.63965 73.0967 9.63965C73.3428 9.63965 73.5296 9.71029 73.6572 9.85156C73.7848 9.98828 73.8486 10.1592 73.8486 10.3643C73.8486 10.5693 73.7848 10.7402 73.6572 10.877C73.5296 11.0091 73.3428 11.0752 73.0967 11.0752C72.8506 11.0752 72.6637 11.0091 72.5361 10.877C72.4131 10.7402 72.3516 10.5693 72.3516 10.3643Z" fill="#646F79"/>
</svg>
