<svg width="32" height="32" viewBox="0 0 32 32" fill="none" xmlns="http://www.w3.org/2000/svg">
<path fill-rule="evenodd" clip-rule="evenodd" d="M0 16C0 24.836 7.164 32 16 32C24.837 32 32 24.836 32 16C32 7.163 24.837 0 16 0C7.164 0 0 7.163 0 16Z" fill="#151B26"/>
<path d="M15.9947 10C15.9947 10 10.6354 10 9.29034 10.3495C8.57013 10.5508 7.97709 11.1438 7.77585 11.8746C7.42634 13.2197 7.42633 16.0053 7.42633 16.0053C7.42633 16.0053 7.42634 18.8015 7.77585 20.1254C7.97709 20.8562 8.55954 21.4386 9.29034 21.6399C10.646 22 15.9947 22 15.9947 22C15.9947 22 21.3646 22 22.7096 21.6505C23.4404 21.4492 24.0229 20.8774 24.2135 20.136C24.5736 18.8015 24.5736 16.0159 24.5736 16.0159C24.5736 16.0159 24.5842 13.2197 24.2135 11.8746C24.0229 11.1438 23.4404 10.5614 22.7096 10.3707C21.3646 10 15.9947 10 15.9947 10ZM14.2895 13.4316L18.7485 16.0053L14.2895 18.5684V13.4316Z" fill="white"/>
</svg>
